TITLE ""
FILE "2Q_j_1491-1500.mp3" MP3
  TRACK 01 AUDIO
    TITLE "2Q_j_1491-1500_01"
    INDEX 01 00:00:00
  TRACK 02 AUDIO
    TITLE "2Q_j_1491-1500_02"
    INDEX 01 00:00:12
  TRACK 03 AUDIO
    TITLE "2Q_j_1491-1500_03"
    INDEX 01 00:01:41
  TRACK 04 AUDIO
    TITLE "2Q_j_1491-1500_04"
    INDEX 01 00:02:13
  TRACK 05 AUDIO
    TITLE "2Q_j_1491-1500_05"
    INDEX 01 00:05:64
  TRACK 06 AUDIO
    TITLE "2Q_j_1491-1500_06"
    INDEX 01 00:06:34
  TRACK 07 AUDIO
    TITLE "2Q_j_1491-1500_07"
    INDEX 01 00:10:50
  TRACK 08 AUDIO
    TITLE "2Q_j_1491-1500_08"
    INDEX 01 00:11:26
  TRACK 09 AUDIO
    TITLE "2Q_j_1491-1500_09"
    INDEX 01 00:12:41
  TRACK 10 AUDIO
    TITLE "2Q_j_1491-1500_10"
    INDEX 01 00:13:15
  TRACK 11 AUDIO
    TITLE "2Q_j_1491-1500_11"
    INDEX 01 00:14:50
  TRACK 12 AUDIO
    TITLE "2Q_j_1491-1500_12"
    INDEX 01 00:15:18
  TRACK 13 AUDIO
    TITLE "2Q_j_1491-1500_13"
    INDEX 01 00:18:28
  TRACK 14 AUDIO
    TITLE "2Q_j_1491-1500_14"
    INDEX 01 00:18:75
  TRACK 15 AUDIO
    TITLE "2Q_j_1491-1500_15"
    INDEX 01 00:20:29
  TRACK 16 AUDIO
    TITLE "2Q_j_1491-1500_16"
    INDEX 01 00:21:01
  TRACK 17 AUDIO
    TITLE "2Q_j_1491-1500_17"
    INDEX 01 00:24:21
  TRACK 18 AUDIO
    TITLE "2Q_j_1491-1500_18"
    INDEX 01 00:24:66
  TRACK 19 AUDIO
    TITLE "2Q_j_1491-1500_19"
    INDEX 01 00:29:51
  TRACK 20 AUDIO
    TITLE "2Q_j_1491-1500_20"
    INDEX 01 00:30:25
  TRACK 21 AUDIO
    TITLE "2Q_j_1491-1500_21"
    INDEX 01 00:31:50
  TRACK 22 AUDIO
    TITLE "2Q_j_1491-1500_22"
    INDEX 01 00:32:22
  TRACK 23 AUDIO
    TITLE "2Q_j_1491-1500_23"
    INDEX 01 00:36:10
  TRACK 24 AUDIO
    TITLE "2Q_j_1491-1500_24"
    INDEX 01 00:36:53
  TRACK 25 AUDIO
    TITLE "2Q_j_1491-1500_25"
    INDEX 01 00:40:74
  TRACK 26 AUDIO
    TITLE "2Q_j_1491-1500_26"
    INDEX 01 00:41:54
  TRACK 27 AUDIO
    TITLE "2Q_j_1491-1500_27"
    INDEX 01 00:43:02
  TRACK 28 AUDIO
    TITLE "2Q_j_1491-1500_28"
    INDEX 01 00:43:47
  TRACK 29 AUDIO
    TITLE "2Q_j_1491-1500_29"
    INDEX 01 00:45:62
  TRACK 30 AUDIO
    TITLE "2Q_j_1491-1500_30"
    INDEX 01 00:46:32
  TRACK 31 AUDIO
    TITLE "2Q_j_1491-1500_31"
    INDEX 01 00:50:42
  TRACK 32 AUDIO
    TITLE "2Q_j_1491-1500_32"
    INDEX 01 00:51:16
  TRACK 33 AUDIO
    TITLE "2Q_j_1491-1500_33"
    INDEX 01 00:52:29
  TRACK 34 AUDIO
    TITLE "2Q_j_1491-1500_34"
    INDEX 01 00:53:10
  TRACK 35 AUDIO
    TITLE "2Q_j_1491-1500_35"
    INDEX 01 00:56:72
  TRACK 36 AUDIO
    TITLE "2Q_j_1491-1500_36"
    INDEX 01 00:57:42
  TRACK 37 AUDIO
    TITLE "2Q_j_1491-1500_37"
    INDEX 01 01:01:75
  TRACK 38 AUDIO
    TITLE "2Q_j_1491-1500_38"
    INDEX 01 01:02:51
  TRACK 39 AUDIO
    TITLE "2Q_j_1491-1500_39"
    INDEX 01 01:04:01
  TRACK 40 AUDIO
    TITLE "2Q_j_1491-1500_40"
    INDEX 01 01:04:46
  TRACK 41 AUDIO
    TITLE "2Q_j_1491-1500_41"
    INDEX 01 01:10:64
  TRACK 42 AUDIO
    TITLE "2Q_j_1491-1500_42"
    INDEX 01 01:11:32
  TRACK 43 AUDIO
    TITLE "2Q_j_1491-1500_43"
    INDEX 01 01:15:39
  TRACK 44 AUDIO
    TITLE "2Q_j_1491-1500_44"
    INDEX 01 01:16:10
  TRACK 45 AUDIO
    TITLE "2Q_j_1491-1500_45"
    INDEX 01 01:17:31
  TRACK 46 AUDIO
    TITLE "2Q_j_1491-1500_46"
    INDEX 01 01:18:03
  TRACK 47 AUDIO
    TITLE "2Q_j_1491-1500_47"
    INDEX 01 01:19:69
  TRACK 48 AUDIO
    TITLE "2Q_j_1491-1500_48"
    INDEX 01 01:20:39
  TRACK 49 AUDIO
    TITLE "2Q_j_1491-1500_49"
    INDEX 01 01:24:27
  TRACK 50 AUDIO
    TITLE "2Q_j_1491-1500_50"
    INDEX 01 01:24:74
  TRACK 51 AUDIO
    TITLE "2Q_j_1491-1500_51"
    INDEX 01 01:26:31
  TRACK 52 AUDIO
    TITLE "2Q_j_1491-1500_52"
    INDEX 01 01:27:04
  TRACK 53 AUDIO
    TITLE "2Q_j_1491-1500_53"
    INDEX 01 01:28:58
  TRACK 54 AUDIO
    TITLE "2Q_j_1491-1500_54"
    INDEX 01 01:29:26
  TRACK 55 AUDIO
    TITLE "2Q_j_1491-1500_55"
    INDEX 01 01:33:24
  TRACK 56 AUDIO
    TITLE "2Q_j_1491-1500_56"
    INDEX 01 01:33:71
  TRACK 57 AUDIO
    TITLE "2Q_j_1491-1500_57"
    INDEX 01 01:35:11
  TRACK 58 AUDIO
    TITLE "2Q_j_1491-1500_58"
    INDEX 01 01:35:56
  TRACK 59 AUDIO
    TITLE "2Q_j_1491-1500_59"
    INDEX 01 01:37:02
  TRACK 60 AUDIO
    TITLE "2Q_j_1491-1500_60"
    INDEX 01 01:37:49
  TRACK 61 AUDIO
    TITLE "2Q_j_1491-1500_61"
    INDEX 01 01:41:57
